<?xml version="1.0" encoding="UTF-8" standalone="no"?>
<!-- Created with Inkscape (http://www.inkscape.org/) -->

<svg
   width="64.0px"
   height="64.0px"
   viewBox="0 0 64.0 64.0"
   version="1.1"
   id="SVGRoot"
   sodipodi:docname="eye-pass-desactive.svg"
   inkscape:version="1.1.2 (b8e25be833, 2022-02-05)"
   xmlns:inkscape="http://www.inkscape.org/namespaces/inkscape"
   xmlns:sodipodi="http://sodipodi.sourceforge.net/DTD/sodipodi-0.dtd"
   xmlns="http://www.w3.org/2000/svg"
   xmlns:svg="http://www.w3.org/2000/svg">
  <sodipodi:namedview
     id="namedview14"
     pagecolor="#505050"
     bordercolor="#eeeeee"
     borderopacity="1"
     inkscape:pageshadow="0"
     inkscape:pageopacity="0"
     inkscape:pagecheckerboard="0"
     inkscape:document-units="px"
     showgrid="true"
     inkscape:zoom="4.8076119"
     inkscape:cx="53.976903"
     inkscape:cy="36.504611"
     inkscape:window-width="1024"
     inkscape:window-height="706"
     inkscape:window-x="-8"
     inkscape:window-y="-8"
     inkscape:window-maximized="1"
     inkscape:current-layer="layer1">
    <inkscape:grid
       type="xygrid"
       id="grid20" />
  </sodipodi:namedview>
  <defs
     id="defs9" />
  <g
     inkscape:label="Camada 1"
     inkscape:groupmode="layer"
     id="layer1">
    <path
       style="fill:#800080;stroke-width:0.115952"
       d="M 30.09679,50.236633 C 23.599196,49.421097 17.201094,46.278159 10.728233,40.722222 7.958839,38.345131 3.963189,34.083539 3.373209,32.877662 c -0.592624,-1.211279 -0.490437,-2.766095 0.2544,-3.870815 0.894567,-1.326795 4.795049,-5.369675 7.105266,-7.364664 5.456827,-4.712246 10.991095,-7.759484 16.349175,-9.00206 2.76373,-0.64093 6.30906,-0.780325 9.16861,-0.36049 7.17093,1.052823 14.4657,5.289436 21.69242,12.59841 3.15806,3.193999 3.90567,4.120884 4.23353,5.248688 0.24196,0.832299 0.14261,1.940454 -0.24459,2.728255 -0.38151,0.776207 -2.27679,2.972179 -4.35803,5.049433 -6.6487,6.635993 -13.69491,10.750412 -20.67667,12.073513 -1.01759,0.19284 -1.83593,0.251882 -3.84377,0.277319 -1.40301,0.01778 -2.73356,0.0094 -2.95676,-0.01862 z m 5.85555,-3.805205 c 6.15606,-1.084937 12.1911,-4.534409 18.48299,-10.564407 1.68816,-1.617886 4.18554,-4.412358 4.18554,-4.683449 0,-0.391498 -2.78391,-3.41827 -5.17932,-5.631153 -4.95103,-4.573766 -9.98406,-7.634654 -14.84974,-9.031013 -2.29763,-0.659379 -3.40734,-0.810736 -5.94409,-0.810736 -2.53675,0 -3.64646,0.151357 -5.94409,0.810736 -4.821469,1.383672 -9.94973,4.504208 -14.865786,9.0458 -2.376578,2.19555 -5.163274,5.226079 -5.163274,5.615054 0,0.425175 3.309579,3.946603 5.797579,6.168689 6.067854,5.419329 12.101208,8.530869 17.914521,9.23893 1.25702,0.153105 4.28738,0.06683 5.56567,-0.158451 z m -5.79758,-2.727601 c -2.56724,-0.518147 -4.85301,-1.779767 -6.689725,-3.692351 -2.384821,-2.483337 -3.571986,-5.418739 -3.571986,-8.832151 0,-3.608915 1.366123,-6.768669 4.010632,-9.276331 1.474109,-1.397831 2.954079,-2.27758 4.859659,-2.888774 1.5494,-0.496949 2.59337,-0.628641 4.42974,-0.558789 2.43539,0.09264 4.49709,0.734221 6.42278,1.998715 1.03681,0.680812 3.01899,2.635587 3.64454,3.594157 1.44864,2.219836 2.12976,4.477606 2.13795,7.086845 0.0111,3.542557 -1.31867,6.70624 -3.85215,9.164651 -1.9383,1.88086 -4.10812,2.995118 -6.75337,3.468041 -1.25913,0.225109 -3.34844,0.196273 -4.63807,-0.06401 z M 35,40 c 1.74516,-0.450264 3.55015,-1.61729 4.72503,-3.054994 0.71863,-0.879387 1.54139,-2.52466 1.81057,-3.620577 0.30182,-1.228833 0.27723,-3.341262 -0.0524,-4.498826 -0.91195,-3.202718 -3.27725,-5.568186 -6.48178,-6.482218 -1.28246,-0.365801 -3.42498,-0.365801 -4.70744,0 -3.20434,0.91398 -5.568239,3.277875 -6.482219,6.482218 -0.365681,1.282046 -0.365792,3.42502 -2.32e-4,4.706552 C 25.21093,38.438157 30.09976,41.264299 34.99999,40 Z"
       id="path261" />
    <path
       style="fill:#800080;stroke:none;stroke-width:1px;stroke-linecap:butt;stroke-linejoin:miter;stroke-opacity:1"
       d="M 40,10 15,50 h 5 L 45,10 Z"
       id="path444" />
  </g>
</svg>
