<?xml version="1.0" encoding="UTF-8" standalone="no"?>
<!-- Created with Inkscape (http://www.inkscape.org/) -->

<svg
   width="180"
   height="180"
   viewBox="0 0 180 180"
   version="1.1"
   id="svg5"
   inkscape:version="1.1.2 (b8e25be833, 2022-02-05)"
   sodipodi:docname="LOGO_UMBRELLA_CORPORATION_BLUE.svg"
   xmlns:inkscape="http://www.inkscape.org/namespaces/inkscape"
   xmlns:sodipodi="http://sodipodi.sourceforge.net/DTD/sodipodi-0.dtd"
   xmlns="http://www.w3.org/2000/svg"
   xmlns:svg="http://www.w3.org/2000/svg">
  <sodipodi:namedview
     id="namedview7"
     pagecolor="#505050"
     bordercolor="#eeeeee"
     borderopacity="1"
     inkscape:pageshadow="0"
     inkscape:pageopacity="0"
     inkscape:pagecheckerboard="0"
     inkscape:document-units="px"
     showgrid="false"
     inkscape:zoom="1.3166667"
     inkscape:cx="186.4557"
     inkscape:cy="77.088608"
     inkscape:window-width="1024"
     inkscape:window-height="705"
     inkscape:window-x="-4"
     inkscape:window-y="-4"
     inkscape:window-maximized="1"
     inkscape:current-layer="layer1" />
  <defs
     id="defs2" />
  <g
     inkscape:label="Camada 1"
     inkscape:groupmode="layer"
     id="layer1">
    <g
       id="g436">
      <path
         style="fill:#483D8B;stroke-width:0.302812"
         d="m 126.71692,172.49642 c -0.22381,-0.5565 -1.6231,-3.9415 -3.10952,-7.52225 -1.48642,-3.58074 -4.10432,-9.91707 -5.81757,-14.08073 -1.71323,-4.16365 -5.45654,-13.22529 -8.31845,-20.13697 -2.8619,-6.91166 -6.54329,-15.83703 -8.18087,-19.83414 -1.637578,-3.99711 -3.943132,-9.57259 -5.123454,-12.389949 -1.180314,-2.817356 -2.146029,-5.16793 -2.146029,-5.223499 0,-0.295024 1.286796,0.192507 8.943413,3.388395 4.59794,1.919187 10.15571,4.222673 12.35061,5.118863 2.19491,0.8962 10.94026,4.51889 19.43413,8.05044 8.49386,3.53155 16.87416,7.00537 18.6229,7.71962 3.1127,1.27132 16.1446,6.69551 19.3185,8.04082 1.74726,0.7406 1.73595,0.9288 -0.09,1.49604 -2.0443,0.63508 -8.63075,3.51293 -11.50683,5.02774 -10.49788,5.52913 -17.30275,11.37517 -23.22657,19.95389 -3.55278,5.14504 -6.98834,11.73982 -9.20032,17.66064 -1.47337,3.94376 -1.46624,3.93378 -1.94997,2.73109 z m -74.74082,0.0216 c -0.153695,-0.40184 -0.721052,-1.88889 -1.2608,-3.30453 C 49.114071,165.0138 45.780317,158.41402 43.296779,154.52714 36.612678,144.06613 29.17467,137.56483 16.9555,131.50315 c -2.831291,-1.40456 -6.578579,-3.08742 -8.3273119,-3.73971 -1.7487405,-0.6523 -3.1561324,-1.29342 -3.1275412,-1.42472 0.061998,-0.28484 19.7956501,-8.52343 47.0352021,-19.6367 3.91384,-1.59679 7.865532,-3.23504 8.78153,-3.64057 2.107508,-0.93302 11.542118,-4.86848 18.553318,-7.739149 2.959559,-1.211769 5.449822,-2.1344 5.53392,-2.050302 0.0841,0.0841 -0.136639,0.819446 -0.490521,1.634116 -0.614256,1.41404 -5.47945,13.198565 -8.362419,20.255525 -1.838338,4.4999 -8.10203,19.62137 -11.163457,26.95023 -2.355444,5.63876 -6.674274,16.05112 -8.289594,19.98555 -5.049592,12.29929 -4.686497,11.56066 -5.122526,10.4206 z M 80.2431,83.522756 C 77.57836,82.392054 74.307995,81.016708 72.975625,80.466456 71.643254,79.916204 69.326747,78.95769 67.82783,78.336427 66.328915,77.715161 59.447523,74.867228 52.535849,72.007685 45.624174,69.148142 37.448269,65.749555 34.367163,64.455272 31.286057,63.16099 26.380507,61.117584 23.465945,59.914371 11.217271,54.857774 5.737709,52.547595 5.5188686,52.347891 5.3909396,52.231145 6.6854613,51.620169 8.3955792,50.990169 14.350044,48.796575 21.121044,45.358802 26.012865,42.045511 37.331606,34.379187 45.035331,24.048966 51.043037,8.4815818 l 1.320367,-3.4213845 0.736575,1.6045175 c 0.405109,0.8824819 0.773271,1.7407784 0.818124,1.90733 0.04485,0.1665437 1.263358,3.1643772 2.707783,6.6618512 1.444426,3.497473 3.352267,8.130485 4.239651,10.295585 2.695139,6.575853 5.133233,12.469533 7.265453,17.563071 1.115493,2.664741 2.43471,5.866972 2.93159,7.11607 0.496878,1.249097 1.770146,4.315063 2.829486,6.813258 2.797469,6.59716 11.39385,27.463796 11.570426,28.08577 0.08274,0.291452 0.03234,0.516665 -0.111982,0.500465 -0.144333,-0.01621 -2.442668,-0.954597 -5.10741,-2.085329 z m 13.780823,1.858771 c 0.0016,-0.109015 1.209818,-3.127911 2.684951,-6.708655 1.475125,-3.580746 3.663046,-8.895088 4.862056,-11.809649 1.19901,-2.91456 3.0437,-7.343178 4.09933,-9.841373 2.84779,-6.739448 7.77003,-18.838427 7.84756,-19.289501 0.0371,-0.216286 0.28518,-0.803347 0.55112,-1.304578 0.26594,-0.501232 1.66756,-3.771596 3.1147,-7.267476 1.44714,-3.495882 3.08316,-7.446268 3.63559,-8.778633 0.55242,-1.332373 2.18827,-5.284065 3.6352,-8.781538 1.44694,-3.4974733 2.6603,-6.3901869 2.69637,-6.4282509 0.036,-0.03808 0.65292,1.4608452 1.37078,3.3309215 4.4612,11.6217744 10.6608,21.3095204 17.88584,27.9491434 5.93868,5.457498 15.4299,11.007733 24.62903,14.402468 l 3.58364,1.32246 -1.80801,0.818224 c -1.68011,0.760338 -14.45814,6.063969 -26.10185,10.833798 -6.2978,2.579884 -16.76154,6.91256 -26.3446,10.908402 -21.343704,8.899666 -26.345751,10.920905 -26.341707,10.644237 z"
         id="path57"
         sodipodi:nodetypes="ssssssssssssssssssssssssssssssssssssssssssscsssccccssscsssssssssssscsssc" />
      <path
         style="fill:#ffffff;stroke-width:0.302812"
         d="m 174.52476,122.33594 c -0.55044,-0.23832 -3.92556,-1.66129 -7.50027,-3.16218 -3.5747,-1.50089 -9.89152,-4.16552 -14.03738,-5.92139 -4.14585,-1.75588 -13.17918,-5.567 -20.07406,-8.46915 -6.89486,-2.90215 -15.78834,-6.65991 -19.76329,-8.350563 -3.97496,-1.69066 -9.53469,-4.03392 -12.35497,-5.20724 -2.82028,-1.17333 -5.159737,-2.16565 -5.198817,-2.20516 -0.20745,-0.20978 1.050327,-0.76792 8.741687,-3.87925 4.61881,-1.86841 10.19032,-4.13847 12.38114,-5.04458 2.19084,-0.90611 10.95645,-4.4795 19.47916,-7.94087 8.52271,-3.46136 16.92407,-6.88392 18.66972,-7.60568 3.10719,-1.28473 16.18745,-6.59126 19.39018,-7.86641 1.76313,-0.70198 1.88742,-0.56021 0.98794,1.12704 -1.00703,1.88901 -3.66672,8.56654 -4.6466,11.66595 -3.57664,11.31301 -4.30457,20.25463 -2.48454,30.519803 1.09154,6.15648 3.28582,13.26136 5.87623,19.02666 1.72541,3.84019 1.72347,3.82808 0.53384,3.31305 z M 121.396,174.9052 c -0.39184,-0.17765 -1.84086,-0.83608 -3.22005,-1.46314 -4.09155,-1.86025 -11.10262,-4.20886 -15.60158,-5.2263 -12.108317,-2.73832 -21.968447,-2.13099 -34.919057,2.15078 -3.00079,0.99212 -6.84857,2.43043 -8.55065,3.19624 -1.70209,0.76581 -3.15361,1.29955 -3.22561,1.18609 -0.1562,-0.24613 8.08233,-19.97981 19.63654,-47.03527 1.66013,-3.8874 3.31802,-7.83089 3.68418,-8.76332 0.84248,-2.14531 4.78368,-11.57752 7.75044,-18.54861 1.25232,-2.942633 2.37426,-5.349683 2.49318,-5.349023 0.11894,6.6e-4 0.47904,0.67874 0.80025,1.50683 0.55752,1.43736 5.38443,13.237623 8.296607,20.282583 1.85696,4.49225 8.03584,19.64857 11.01231,27.01234 2.29007,5.66563 6.54063,16.10604 8.15855,20.0394 5.05775,12.29595 4.79656,11.51544 3.68489,11.0114 z M 78.918173,91.749827 c -2.6898,1.06973 -5.98225,2.39136 -7.31653,2.93696 -1.33428,0.5456 -3.65538,1.4929 -5.15802,2.10512 -1.50264,0.61222 -8.39813,3.425853 -15.3233,6.252523 -6.92519,2.82668 -15.12832,6.15901 -18.22919,7.4052 -3.10087,1.24618 -8.02574,3.24256 -10.94416,4.4364 -12.26488,5.01717 -17.78548,7.22748 -18.0815,7.23936 -0.17306,0.007 0.31779,-1.33773 1.09078,-2.98815 2.69146,-5.74661 5.08867,-12.95203 6.23723,-18.7476 2.65755,-13.409853 0.87154,-26.171943 -5.8029,-41.465333 l -1.46691,-3.36117 1.65196,0.62296 c 0.90856,0.34263 1.77385,0.69404 1.92285,0.78093 0.14896,0.0869 3.12333,1.36168 6.60963,2.83289 3.48629,1.47121 8.10054,3.42399 10.2539,4.3395 6.54016,2.78063 12.41788,5.25695 17.51549,7.37941 2.66687,1.11039 5.85654,2.45971 7.08814,2.99849 1.23161,0.53878 4.29278,1.82351 6.80263,2.85497 6.62789,2.72383 27.41264,11.51637 27.97553,11.83447 0.26374,0.14908 0.38625,0.34465 0.27227,0.43458 -0.11401,0.09 -2.40806,1.0388 -5.09788,2.10851 z m 11.10575,-8.3683 c -0.0752,-0.0789 -1.33916,-3.07476 -2.80807,-6.65805 -1.46891,-3.58331 -3.64998,-8.90046 -4.8468,-11.81592 -1.19682,-2.91546 -2.99914,-7.36149 -4.00514,-9.88008 -2.71394,-6.79446 -7.72139,-18.858418 -7.98344,-19.23367 -0.1257,-0.179872 -0.36209,-0.771734 -0.52544,-1.315127 -0.16334,-0.543393 -1.46628,-3.854309 -2.89543,-7.357585 -1.42914,-3.503277 -3.04357,-7.462536 -3.58762,-8.798345 -0.54406,-1.335808 -2.15953,-5.295877 -3.58994,-8.800137 -1.43041,-3.504268 -2.60166,-6.414284 -2.60278,-6.466712 -10e-4,-0.05239 1.49144,0.579624 3.31682,1.404567 11.34393,5.126696 22.56404,7.655861 32.37,7.296643 8.060077,-0.29526 18.711387,-3.022537 27.639367,-7.077092 l 3.47801,-1.579505 -0.71024,1.853096 c -0.66001,1.721994 -6.0165,14.477956 -10.94178,26.056767 -2.66396,6.2627 -7.05762,16.70098 -11.06191,26.28051 -8.918507,21.33584 -11.053947,26.29021 -11.245607,26.09064 z"
         id="path57-2"
         sodipodi:nodetypes="ssssssssssssssssssssssssssssssssssssssssssscsssccccssscsssssssssssscsssc" />
    </g>
  </g>
</svg>
